<mxfile host="app.diagrams.net" modified="2024-01-24T13:40:21.874Z" agent="Mozilla/5.0 (X11; Linux x86_64) AppleWebKit/537.36 (KHTML, like Gecko) Chrome/116.0.5845.1077 YaBrowser/23.9.1.1077 Yowser/2.5 Safari/537.36" etag="vJ6oz8X9QPw4STWEtNND" version="22.1.18" type="github">
  <diagram name="Страница — 1" id="4d1qR_BhAaS2eiX-IXbG">
    <mxGraphModel dx="1624" dy="804" grid="1" gridSize="10" guides="1" tooltips="1" connect="1" arrows="1" fold="1" page="1" pageScale="1" pageWidth="827" pageHeight="1169" math="0" shadow="0">
      <root>
        <mxCell id="0" />
        <mxCell id="1" parent="0" />
        <mxCell id="toivHBPaiMupdmYnzqNI-1" value="2 шаг. Обмен при запуске приложения &lt;br&gt;авторизованным пользователем" style="text;strokeColor=none;fillColor=none;html=1;fontSize=24;fontStyle=1;verticalAlign=middle;align=center;" vertex="1" parent="1">
          <mxGeometry x="170" y="30" width="130" height="40" as="geometry" />
        </mxCell>
        <mxCell id="toivHBPaiMupdmYnzqNI-3" value="Client" style="rounded=0;whiteSpace=wrap;html=1;" vertex="1" parent="1">
          <mxGeometry x="135" y="90" width="120" height="20" as="geometry" />
        </mxCell>
        <mxCell id="toivHBPaiMupdmYnzqNI-4" value="{&quot;hi&quot;:{&quot;id&quot;:&quot;95930&quot;,&quot;lang&quot;:&quot;ru_RU&quot;,&quot;ua&quot;:&quot;Tindroid/1 (Android 13; ru_RU); snowstormsn/1&quot;,&quot;ver&quot;:&quot;0.22&quot;}}" style="rounded=1;whiteSpace=wrap;html=1;" vertex="1" parent="1">
          <mxGeometry x="60" y="120" width="270" height="120" as="geometry" />
        </mxCell>
        <mxCell id="toivHBPaiMupdmYnzqNI-5" style="edgeStyle=orthogonalEdgeStyle;rounded=0;orthogonalLoop=1;jettySize=auto;html=1;exitX=0.5;exitY=1;exitDx=0;exitDy=0;" edge="1" parent="1" source="toivHBPaiMupdmYnzqNI-3" target="toivHBPaiMupdmYnzqNI-3">
          <mxGeometry relative="1" as="geometry" />
        </mxCell>
        <mxCell id="toivHBPaiMupdmYnzqNI-9" value="{&quot;ctrl&quot;:{&quot;id&quot;:&quot;95930&quot;,&quot;params&quot;:{&quot;build&quot;:&quot;rethinkdb:v0.22.10&quot;,&quot;maxFileUploadSize&quot;:33554432,&lt;br&gt;&quot;maxMessageSize&quot;:4194304,&quot;maxSubscriberCount&quot;:32,&lt;br&gt;&quot;maxTagCount&quot;:16,&quot;maxTagLength&quot;:96,&quot;minTagLength&quot;:2,&lt;br&gt;&quot;reqCred&quot;:null,&quot;ver&quot;:&quot;0.22&quot;},&lt;br&gt;&quot;code&quot;:201,&quot;text&quot;:&quot;created&quot;,&quot;ts&quot;:&quot;2024-01-24T13:10:44.066Z&quot;}}" style="rounded=1;whiteSpace=wrap;html=1;" vertex="1" parent="1">
          <mxGeometry x="20" y="340" width="370" height="120" as="geometry" />
        </mxCell>
        <mxCell id="toivHBPaiMupdmYnzqNI-10" value="Server" style="rounded=0;whiteSpace=wrap;html=1;" vertex="1" parent="1">
          <mxGeometry x="135" y="310" width="120" height="20" as="geometry" />
        </mxCell>
        <mxCell id="toivHBPaiMupdmYnzqNI-13" value="" style="shape=flexArrow;endArrow=classic;html=1;rounded=0;" edge="1" parent="1">
          <mxGeometry width="50" height="50" relative="1" as="geometry">
            <mxPoint x="330" y="179.5" as="sourcePoint" />
            <mxPoint x="410" y="180" as="targetPoint" />
          </mxGeometry>
        </mxCell>
        <mxCell id="toivHBPaiMupdmYnzqNI-16" style="edgeStyle=orthogonalEdgeStyle;rounded=0;orthogonalLoop=1;jettySize=auto;html=1;" edge="1" parent="1" source="toivHBPaiMupdmYnzqNI-15">
          <mxGeometry relative="1" as="geometry">
            <mxPoint x="200" y="300" as="targetPoint" />
            <Array as="points">
              <mxPoint x="474" y="260" />
              <mxPoint x="201" y="260" />
            </Array>
          </mxGeometry>
        </mxCell>
        <mxCell id="toivHBPaiMupdmYnzqNI-15" value="Server" style="ellipse;whiteSpace=wrap;html=1;" vertex="1" parent="1">
          <mxGeometry x="414" y="140" width="120" height="80" as="geometry" />
        </mxCell>
        <mxCell id="toivHBPaiMupdmYnzqNI-17" value="" style="shape=flexArrow;endArrow=classic;html=1;rounded=0;entryX=0;entryY=0.5;entryDx=0;entryDy=0;" edge="1" parent="1" target="toivHBPaiMupdmYnzqNI-18">
          <mxGeometry width="50" height="50" relative="1" as="geometry">
            <mxPoint x="390" y="399.5" as="sourcePoint" />
            <mxPoint x="460" y="399.5" as="targetPoint" />
          </mxGeometry>
        </mxCell>
        <mxCell id="toivHBPaiMupdmYnzqNI-25" style="edgeStyle=orthogonalEdgeStyle;rounded=0;orthogonalLoop=1;jettySize=auto;html=1;exitX=0.5;exitY=1;exitDx=0;exitDy=0;entryX=0.5;entryY=0;entryDx=0;entryDy=0;" edge="1" parent="1" source="toivHBPaiMupdmYnzqNI-18" target="toivHBPaiMupdmYnzqNI-20">
          <mxGeometry relative="1" as="geometry" />
        </mxCell>
        <mxCell id="toivHBPaiMupdmYnzqNI-18" value="Client" style="ellipse;whiteSpace=wrap;html=1;" vertex="1" parent="1">
          <mxGeometry x="474" y="360" width="120" height="80" as="geometry" />
        </mxCell>
        <mxCell id="toivHBPaiMupdmYnzqNI-20" value="Client" style="rounded=0;whiteSpace=wrap;html=1;" vertex="1" parent="1">
          <mxGeometry x="135" y="520" width="120" height="20" as="geometry" />
        </mxCell>
        <mxCell id="toivHBPaiMupdmYnzqNI-21" value="{&quot;login&quot;:{&quot;id&quot;:&quot;95933&quot;,&quot;scheme&quot;:&quot;token&quot;,&lt;br&gt;&quot;secret&quot;:&quot;aEDoJNwPN7jSdcNlFAABAAEAASaVBPb+vaEOWMYRiJ6m4Hk5Vut/05T7l8+2oqq6xXY=&quot;}}" style="rounded=1;whiteSpace=wrap;html=1;" vertex="1" parent="1">
          <mxGeometry x="10" y="555" width="550" height="60" as="geometry" />
        </mxCell>
        <mxCell id="toivHBPaiMupdmYnzqNI-22" value="&lt;span style=&quot;color: rgb(0, 0, 0); font-family: Helvetica; font-size: 12px; font-style: normal; font-variant-ligatures: normal; font-variant-caps: normal; font-weight: 400; letter-spacing: normal; orphans: 2; text-align: center; text-indent: 0px; text-transform: none; widows: 2; word-spacing: 0px; -webkit-text-stroke-width: 0px; background-color: rgb(251, 251, 251); text-decoration-thickness: initial; text-decoration-style: initial; text-decoration-color: initial; float: none; display: inline !important;&quot;&gt;{&quot;ctrl&quot;:{&quot;id&quot;:&quot;95933&quot;,&quot;params&quot;:{&quot;authlvl&quot;:&quot;auth&quot;,&quot;expires&quot;:&quot;2024-02-07T13:13:26.33Z&quot;,&lt;br&gt;&quot;token&quot;:&quot;aEDoJNwPN7j2gcNlFAABAAEA5foq9sj4pMmQkScLCqqC9X4F8yau2ELhzqJk2bU5VpU=&quot;,&lt;br&gt;&quot;user&quot;:&quot;usraEDoJNwPN7g&quot;},&quot;code&quot;:200,&quot;text&quot;:&quot;ok&quot;,&quot;ts&quot;:&quot;2024-01-24T13:13:26.316Z&quot;}}&lt;/span&gt;" style="rounded=1;whiteSpace=wrap;html=1;" vertex="1" parent="1">
          <mxGeometry x="10" y="720" width="540" height="120" as="geometry" />
        </mxCell>
        <mxCell id="toivHBPaiMupdmYnzqNI-23" value="Server" style="rounded=0;whiteSpace=wrap;html=1;" vertex="1" parent="1">
          <mxGeometry x="135" y="690" width="120" height="20" as="geometry" />
        </mxCell>
        <mxCell id="toivHBPaiMupdmYnzqNI-28" style="edgeStyle=orthogonalEdgeStyle;rounded=0;orthogonalLoop=1;jettySize=auto;html=1;exitX=0.5;exitY=1;exitDx=0;exitDy=0;entryX=0.5;entryY=0;entryDx=0;entryDy=0;" edge="1" parent="1" source="toivHBPaiMupdmYnzqNI-26" target="toivHBPaiMupdmYnzqNI-23">
          <mxGeometry relative="1" as="geometry" />
        </mxCell>
        <mxCell id="toivHBPaiMupdmYnzqNI-26" value="Server" style="ellipse;whiteSpace=wrap;html=1;" vertex="1" parent="1">
          <mxGeometry x="630" y="545" width="120" height="80" as="geometry" />
        </mxCell>
        <mxCell id="toivHBPaiMupdmYnzqNI-27" value="" style="shape=flexArrow;endArrow=classic;html=1;rounded=0;" edge="1" parent="1">
          <mxGeometry width="50" height="50" relative="1" as="geometry">
            <mxPoint x="560" y="585" as="sourcePoint" />
            <mxPoint x="630" y="585" as="targetPoint" />
          </mxGeometry>
        </mxCell>
        <mxCell id="toivHBPaiMupdmYnzqNI-31" value="" style="shape=flexArrow;endArrow=classic;html=1;rounded=0;" edge="1" parent="1">
          <mxGeometry width="50" height="50" relative="1" as="geometry">
            <mxPoint x="550" y="779.5" as="sourcePoint" />
            <mxPoint x="630" y="780" as="targetPoint" />
            <Array as="points">
              <mxPoint x="560" y="779.5" />
              <mxPoint x="580" y="779.5" />
            </Array>
          </mxGeometry>
        </mxCell>
        <mxCell id="toivHBPaiMupdmYnzqNI-44" style="edgeStyle=orthogonalEdgeStyle;rounded=0;orthogonalLoop=1;jettySize=auto;html=1;exitX=0.5;exitY=1;exitDx=0;exitDy=0;entryX=0.5;entryY=0;entryDx=0;entryDy=0;" edge="1" parent="1" source="toivHBPaiMupdmYnzqNI-32" target="toivHBPaiMupdmYnzqNI-41">
          <mxGeometry relative="1" as="geometry" />
        </mxCell>
        <mxCell id="toivHBPaiMupdmYnzqNI-32" value="Client" style="ellipse;whiteSpace=wrap;html=1;" vertex="1" parent="1">
          <mxGeometry x="630" y="740" width="120" height="80" as="geometry" />
        </mxCell>
        <mxCell id="toivHBPaiMupdmYnzqNI-33" value="{&quot;sub&quot;:{&quot;get&quot;:{&quot;desc&quot;:{&quot;ims&quot;:&quot;2024-01-12T12:33:14.751Z&quot;},&quot;sub&quot;:{&quot;ims&quot;:&quot;2024-01-24T07:57:15.840Z&quot;},&quot;what&quot;:&quot;desc sub tags cred&quot;},&quot;id&quot;:&quot;95069&quot;,&quot;topic&quot;:&quot;me&quot;}}" style="rounded=1;whiteSpace=wrap;html=1;" vertex="1" parent="1">
          <mxGeometry x="35" y="960" width="340" height="120" as="geometry" />
        </mxCell>
        <mxCell id="toivHBPaiMupdmYnzqNI-68" style="edgeStyle=orthogonalEdgeStyle;rounded=0;orthogonalLoop=1;jettySize=auto;html=1;exitX=0.5;exitY=1;exitDx=0;exitDy=0;entryX=0.5;entryY=0;entryDx=0;entryDy=0;" edge="1" parent="1" source="toivHBPaiMupdmYnzqNI-35" target="toivHBPaiMupdmYnzqNI-46">
          <mxGeometry relative="1" as="geometry" />
        </mxCell>
        <mxCell id="toivHBPaiMupdmYnzqNI-35" value="{&quot;ctrl&quot;:{&quot;id&quot;:&quot;95069&quot;,&quot;topic&quot;:&quot;me&quot;,&quot;code&quot;:200,&quot;text&quot;:&quot;ok&quot;,&quot;ts&quot;:&quot;2024-01-24T13:30:02.626Z&quot;}}" style="rounded=1;whiteSpace=wrap;html=1;" vertex="1" parent="1">
          <mxGeometry x="22.5" y="1140" width="345" height="120" as="geometry" />
        </mxCell>
        <mxCell id="toivHBPaiMupdmYnzqNI-69" style="edgeStyle=orthogonalEdgeStyle;rounded=0;orthogonalLoop=1;jettySize=auto;html=1;exitX=0.5;exitY=1;exitDx=0;exitDy=0;entryX=0.5;entryY=0;entryDx=0;entryDy=0;" edge="1" parent="1" source="toivHBPaiMupdmYnzqNI-36" target="toivHBPaiMupdmYnzqNI-47">
          <mxGeometry relative="1" as="geometry" />
        </mxCell>
        <mxCell id="toivHBPaiMupdmYnzqNI-36" value="{&quot;meta&quot;:{&quot;id&quot;:&quot;95069&quot;,&quot;topic&quot;:&quot;me&quot;,&quot;ts&quot;:&quot;2024-01-24T13:30:02.631Z&quot;,&quot;desc&quot;:{&quot;updated&quot;:&quot;2024-01-12T12:33:14.751Z&quot;,&quot;touched&quot;:&quot;2024-01-12T12:33:14.751Z&quot;,&quot;defacs&quot;:{&quot;auth&quot;:&quot;JRWPAS&quot;,&quot;anon&quot;:&quot;N&quot;},&quot;acs&quot;:{&quot;want&quot;:&quot;JPS&quot;,&quot;given&quot;:&quot;JPS&quot;,&quot;mode&quot;:&quot;JPS&quot;}}}}" style="rounded=1;whiteSpace=wrap;html=1;" vertex="1" parent="1">
          <mxGeometry x="20" y="1330" width="390" height="120" as="geometry" />
        </mxCell>
        <mxCell id="toivHBPaiMupdmYnzqNI-70" style="edgeStyle=orthogonalEdgeStyle;rounded=0;orthogonalLoop=1;jettySize=auto;html=1;exitX=0.5;exitY=1;exitDx=0;exitDy=0;entryX=0.5;entryY=0;entryDx=0;entryDy=0;" edge="1" parent="1" source="toivHBPaiMupdmYnzqNI-37" target="toivHBPaiMupdmYnzqNI-49">
          <mxGeometry relative="1" as="geometry" />
        </mxCell>
        <mxCell id="toivHBPaiMupdmYnzqNI-37" value="{&quot;ctrl&quot;:{&quot;id&quot;:&quot;95069&quot;,&quot;topic&quot;:&quot;me&quot;,&quot;params&quot;:{&quot;what&quot;:&quot;sub&quot;},&quot;code&quot;:204,&quot;text&quot;:&quot;no content&quot;,&quot;ts&quot;:&quot;2024-01-24T13:30:02.631Z&quot;}}" style="rounded=1;whiteSpace=wrap;html=1;" vertex="1" parent="1">
          <mxGeometry x="45" y="1530" width="320" height="90" as="geometry" />
        </mxCell>
        <mxCell id="toivHBPaiMupdmYnzqNI-71" style="edgeStyle=orthogonalEdgeStyle;rounded=0;orthogonalLoop=1;jettySize=auto;html=1;exitX=0.5;exitY=1;exitDx=0;exitDy=0;entryX=0.5;entryY=0;entryDx=0;entryDy=0;" edge="1" parent="1" source="toivHBPaiMupdmYnzqNI-38" target="toivHBPaiMupdmYnzqNI-50">
          <mxGeometry relative="1" as="geometry" />
        </mxCell>
        <mxCell id="toivHBPaiMupdmYnzqNI-38" value="{&quot;meta&quot;:{&quot;id&quot;:&quot;95069&quot;,&quot;topic&quot;:&quot;me&quot;,&quot;ts&quot;:&quot;2024-01-24T13:30:02.638Z&quot;,&quot;tags&quot;:[&quot;basic:test_user_amulet_s&quot;]}}" style="rounded=1;whiteSpace=wrap;html=1;" vertex="1" parent="1">
          <mxGeometry x="50" y="1690" width="310" height="80" as="geometry" />
        </mxCell>
        <mxCell id="toivHBPaiMupdmYnzqNI-72" style="edgeStyle=orthogonalEdgeStyle;rounded=0;orthogonalLoop=1;jettySize=auto;html=1;exitX=0.5;exitY=1;exitDx=0;exitDy=0;entryX=0.5;entryY=0;entryDx=0;entryDy=0;" edge="1" parent="1" source="toivHBPaiMupdmYnzqNI-39" target="toivHBPaiMupdmYnzqNI-51">
          <mxGeometry relative="1" as="geometry" />
        </mxCell>
        <mxCell id="toivHBPaiMupdmYnzqNI-39" value="{&quot;ctrl&quot;:{&quot;id&quot;:&quot;95069&quot;,&quot;topic&quot;:&quot;me&quot;,&quot;params&quot;:{&quot;what&quot;:&quot;creds&quot;},&quot;code&quot;:204,&quot;text&quot;:&quot;no content&quot;,&quot;ts&quot;:&quot;2024-01-24T13:30:02.638Z&quot;}}" style="rounded=1;whiteSpace=wrap;html=1;" vertex="1" parent="1">
          <mxGeometry x="40" y="1850" width="340" height="90" as="geometry" />
        </mxCell>
        <mxCell id="toivHBPaiMupdmYnzqNI-40" value="{&quot;pres&quot;:{&quot;topic&quot;:&quot;me&quot;,&quot;src&quot;:&quot;usrJuPmrXlxP4A&quot;,&quot;what&quot;:&quot;on&quot;}}" style="rounded=1;whiteSpace=wrap;html=1;" vertex="1" parent="1">
          <mxGeometry x="40" y="2010" width="350" height="50" as="geometry" />
        </mxCell>
        <mxCell id="toivHBPaiMupdmYnzqNI-41" value="Client" style="rounded=0;whiteSpace=wrap;html=1;" vertex="1" parent="1">
          <mxGeometry x="135" y="930" width="120" height="20" as="geometry" />
        </mxCell>
        <mxCell id="toivHBPaiMupdmYnzqNI-67" style="edgeStyle=orthogonalEdgeStyle;rounded=0;orthogonalLoop=1;jettySize=auto;html=1;exitX=0.5;exitY=1;exitDx=0;exitDy=0;entryX=0.5;entryY=0;entryDx=0;entryDy=0;" edge="1" parent="1" source="toivHBPaiMupdmYnzqNI-42" target="toivHBPaiMupdmYnzqNI-45">
          <mxGeometry relative="1" as="geometry" />
        </mxCell>
        <mxCell id="toivHBPaiMupdmYnzqNI-42" value="Server" style="ellipse;whiteSpace=wrap;html=1;" vertex="1" parent="1">
          <mxGeometry x="450" y="980" width="120" height="80" as="geometry" />
        </mxCell>
        <mxCell id="toivHBPaiMupdmYnzqNI-43" value="" style="shape=flexArrow;endArrow=classic;html=1;rounded=0;" edge="1" parent="1">
          <mxGeometry width="50" height="50" relative="1" as="geometry">
            <mxPoint x="380" y="1020" as="sourcePoint" />
            <mxPoint x="450" y="1020" as="targetPoint" />
          </mxGeometry>
        </mxCell>
        <mxCell id="toivHBPaiMupdmYnzqNI-45" value="Server" style="rounded=0;whiteSpace=wrap;html=1;" vertex="1" parent="1">
          <mxGeometry x="135" y="1110" width="120" height="20" as="geometry" />
        </mxCell>
        <mxCell id="toivHBPaiMupdmYnzqNI-46" value="Server" style="rounded=0;whiteSpace=wrap;html=1;" vertex="1" parent="1">
          <mxGeometry x="135" y="1300" width="120" height="20" as="geometry" />
        </mxCell>
        <mxCell id="toivHBPaiMupdmYnzqNI-47" value="Server" style="rounded=0;whiteSpace=wrap;html=1;" vertex="1" parent="1">
          <mxGeometry x="135" y="1500" width="120" height="20" as="geometry" />
        </mxCell>
        <mxCell id="toivHBPaiMupdmYnzqNI-49" value="Server" style="rounded=0;whiteSpace=wrap;html=1;" vertex="1" parent="1">
          <mxGeometry x="135" y="1660" width="120" height="20" as="geometry" />
        </mxCell>
        <mxCell id="toivHBPaiMupdmYnzqNI-50" value="Server" style="rounded=0;whiteSpace=wrap;html=1;" vertex="1" parent="1">
          <mxGeometry x="135" y="1820" width="120" height="20" as="geometry" />
        </mxCell>
        <mxCell id="toivHBPaiMupdmYnzqNI-51" value="Server" style="rounded=0;whiteSpace=wrap;html=1;" vertex="1" parent="1">
          <mxGeometry x="135" y="1980" width="120" height="20" as="geometry" />
        </mxCell>
        <mxCell id="toivHBPaiMupdmYnzqNI-52" value="" style="shape=flexArrow;endArrow=classic;html=1;rounded=0;" edge="1" parent="1">
          <mxGeometry width="50" height="50" relative="1" as="geometry">
            <mxPoint x="367.5" y="1199.5" as="sourcePoint" />
            <mxPoint x="447.5" y="1200" as="targetPoint" />
            <Array as="points">
              <mxPoint x="377.5" y="1199.5" />
              <mxPoint x="397.5" y="1199.5" />
            </Array>
          </mxGeometry>
        </mxCell>
        <mxCell id="toivHBPaiMupdmYnzqNI-53" value="Client" style="ellipse;whiteSpace=wrap;html=1;" vertex="1" parent="1">
          <mxGeometry x="447.5" y="1160" width="120" height="80" as="geometry" />
        </mxCell>
        <mxCell id="toivHBPaiMupdmYnzqNI-54" value="" style="shape=flexArrow;endArrow=classic;html=1;rounded=0;" edge="1" parent="1">
          <mxGeometry width="50" height="50" relative="1" as="geometry">
            <mxPoint x="410" y="1389.5" as="sourcePoint" />
            <mxPoint x="490" y="1390" as="targetPoint" />
            <Array as="points">
              <mxPoint x="420" y="1389.5" />
              <mxPoint x="440" y="1389.5" />
            </Array>
          </mxGeometry>
        </mxCell>
        <mxCell id="toivHBPaiMupdmYnzqNI-55" value="Client" style="ellipse;whiteSpace=wrap;html=1;" vertex="1" parent="1">
          <mxGeometry x="490" y="1350" width="120" height="80" as="geometry" />
        </mxCell>
        <mxCell id="toivHBPaiMupdmYnzqNI-59" value="" style="shape=flexArrow;endArrow=classic;html=1;rounded=0;" edge="1" parent="1">
          <mxGeometry width="50" height="50" relative="1" as="geometry">
            <mxPoint x="365" y="1574.5" as="sourcePoint" />
            <mxPoint x="445" y="1575" as="targetPoint" />
            <Array as="points">
              <mxPoint x="375" y="1574.5" />
              <mxPoint x="395" y="1574.5" />
            </Array>
          </mxGeometry>
        </mxCell>
        <mxCell id="toivHBPaiMupdmYnzqNI-60" value="Client" style="ellipse;whiteSpace=wrap;html=1;" vertex="1" parent="1">
          <mxGeometry x="445" y="1535" width="120" height="80" as="geometry" />
        </mxCell>
        <mxCell id="toivHBPaiMupdmYnzqNI-61" value="" style="shape=flexArrow;endArrow=classic;html=1;rounded=0;" edge="1" parent="1">
          <mxGeometry width="50" height="50" relative="1" as="geometry">
            <mxPoint x="360" y="1729.5" as="sourcePoint" />
            <mxPoint x="440" y="1730" as="targetPoint" />
            <Array as="points">
              <mxPoint x="370" y="1729.5" />
              <mxPoint x="390" y="1729.5" />
            </Array>
          </mxGeometry>
        </mxCell>
        <mxCell id="toivHBPaiMupdmYnzqNI-62" value="Client" style="ellipse;whiteSpace=wrap;html=1;" vertex="1" parent="1">
          <mxGeometry x="440" y="1690" width="120" height="80" as="geometry" />
        </mxCell>
        <mxCell id="toivHBPaiMupdmYnzqNI-63" value="" style="shape=flexArrow;endArrow=classic;html=1;rounded=0;" edge="1" parent="1">
          <mxGeometry width="50" height="50" relative="1" as="geometry">
            <mxPoint x="380" y="1894.5" as="sourcePoint" />
            <mxPoint x="460" y="1895" as="targetPoint" />
            <Array as="points">
              <mxPoint x="390" y="1894.5" />
              <mxPoint x="410" y="1894.5" />
            </Array>
          </mxGeometry>
        </mxCell>
        <mxCell id="toivHBPaiMupdmYnzqNI-64" value="Client" style="ellipse;whiteSpace=wrap;html=1;" vertex="1" parent="1">
          <mxGeometry x="460" y="1855" width="120" height="80" as="geometry" />
        </mxCell>
        <mxCell id="toivHBPaiMupdmYnzqNI-65" value="" style="shape=flexArrow;endArrow=classic;html=1;rounded=0;" edge="1" parent="1">
          <mxGeometry width="50" height="50" relative="1" as="geometry">
            <mxPoint x="390" y="2034.5" as="sourcePoint" />
            <mxPoint x="470" y="2035" as="targetPoint" />
            <Array as="points">
              <mxPoint x="400" y="2034.5" />
              <mxPoint x="420" y="2034.5" />
            </Array>
          </mxGeometry>
        </mxCell>
        <mxCell id="toivHBPaiMupdmYnzqNI-66" value="Client" style="ellipse;whiteSpace=wrap;html=1;" vertex="1" parent="1">
          <mxGeometry x="470" y="1995" width="120" height="80" as="geometry" />
        </mxCell>
      </root>
    </mxGraphModel>
  </diagram>
</mxfile>
